REM DIRINDEX 1\2,1\3,1\4,1\5
REM DIRNAME "folder01","folder02","folder03","folder04","folder05"
TITLE ""
FILE "1Q_j_2142-2155.mp3" MP3
  TRACK 01 AUDIO
    TITLE "3:cjc172_0126"
    INDEX 01 00:00:00
  TRACK 02 AUDIO
    TITLE "0:"
    INDEX 01 00:01:12
  TRACK 03 AUDIO
    TITLE "4:cjc172_0127"
    INDEX 01 00:01:22
  TRACK 04 AUDIO
    TITLE "0:"
    INDEX 01 00:03:69
  TRACK 05 AUDIO
    TITLE "5:cjc172_0128"
    INDEX 01 00:04:02
  TRACK 06 AUDIO
    TITLE "0:"
    INDEX 01 00:11:10
  TRACK 07 AUDIO
    TITLE "3:cjc172_0129"
    INDEX 01 00:11:59
  TRACK 08 AUDIO
    TITLE "0:"
    INDEX 01 00:13:07
  TRACK 09 AUDIO
    TITLE "4:cjc172_0130"
    INDEX 01 00:13:15
  TRACK 10 AUDIO
    TITLE "0:"
    INDEX 01 00:16:31
  TRACK 11 AUDIO
    TITLE "5:cjc172_0131"
    INDEX 01 00:16:39
  TRACK 12 AUDIO
    TITLE "0:"
    INDEX 01 00:22:22
  TRACK 13 AUDIO
    TITLE "3:cjc172_0132"
    INDEX 01 00:22:67
  TRACK 14 AUDIO
    TITLE "0:"
    INDEX 01 00:24:07
  TRACK 15 AUDIO
    TITLE "4:cjc172_0133"
    INDEX 01 00:24:17
  TRACK 16 AUDIO
    TITLE "0:"
    INDEX 01 00:27:42
  TRACK 17 AUDIO
    TITLE "5:cjc172_0134"
    INDEX 01 00:27:50
  TRACK 18 AUDIO
    TITLE "0:"
    INDEX 01 00:35:65
  TRACK 19 AUDIO
    TITLE "3:cjc172_0135"
    INDEX 01 00:36:36
  TRACK 20 AUDIO
    TITLE "0:"
    INDEX 01 00:37:39
  TRACK 21 AUDIO
    TITLE "4:cjc172_0136"
    INDEX 01 00:37:57
  TRACK 22 AUDIO
    TITLE "0:"
    INDEX 01 00:39:03
  TRACK 23 AUDIO
    TITLE "5:cjc172_0137"
    INDEX 01 00:39:08
  TRACK 24 AUDIO
    TITLE "0:"
    INDEX 01 00:43:36
  TRACK 25 AUDIO
    TITLE "3:cjc172_0138"
    INDEX 01 00:44:06
  TRACK 26 AUDIO
    TITLE "0:"
    INDEX 01 00:45:13
  TRACK 27 AUDIO
    TITLE "4:cjc172_0139"
    INDEX 01 00:45:33
  TRACK 28 AUDIO
    TITLE "0:"
    INDEX 01 00:47:27
  TRACK 29 AUDIO
    TITLE "5:cjc172_0140"
    INDEX 01 00:47:35
  TRACK 30 AUDIO
    TITLE "0:"
    INDEX 01 00:53:67
  TRACK 31 AUDIO
    TITLE "3:cjc172_0141"
    INDEX 01 00:54:37
  TRACK 32 AUDIO
    TITLE "0:"
    INDEX 01 00:55:43
  TRACK 33 AUDIO
    TITLE "4:cjc172_0142"
    INDEX 01 00:55:62
  TRACK 34 AUDIO
    TITLE "0:"
    INDEX 01 00:56:60
  TRACK 35 AUDIO
    TITLE "5:cjc172_0143"
    INDEX 01 00:56:68
  TRACK 36 AUDIO
    TITLE "0:"
    INDEX 01 01:03:44
  TRACK 37 AUDIO
    TITLE "3:cjc172_0144"
    INDEX 01 01:04:14
  TRACK 38 AUDIO
    TITLE "0:"
    INDEX 01 01:05:43
  TRACK 39 AUDIO
    TITLE "4:cjc172_0145"
    INDEX 01 01:05:53
  TRACK 40 AUDIO
    TITLE "0:"
    INDEX 01 01:07:40
  TRACK 41 AUDIO
    TITLE "5:cjc172_0146"
    INDEX 01 01:07:48
  TRACK 42 AUDIO
    TITLE "0:"
    INDEX 01 01:13:64
  TRACK 43 AUDIO
    TITLE "3:cjc172_0147"
    INDEX 01 01:14:36
  TRACK 44 AUDIO
    TITLE "0:"
    INDEX 01 01:15:55
  TRACK 45 AUDIO
    TITLE "4:cjc172_0148"
    INDEX 01 01:15:69
  TRACK 46 AUDIO
    TITLE "0:"
    INDEX 01 01:17:33
  TRACK 47 AUDIO
    TITLE "5:cjc172_0149"
    INDEX 01 01:17:40
  TRACK 48 AUDIO
    TITLE "0:"
    INDEX 01 01:24:17
  TRACK 49 AUDIO
    TITLE "3:cjc172_0150"
    INDEX 01 01:24:64
  TRACK 50 AUDIO
    TITLE "0:"
    INDEX 01 01:26:43
  TRACK 51 AUDIO
    TITLE "4:cjc172_0151"
    INDEX 01 01:26:53
  TRACK 52 AUDIO
    TITLE "0:"
    INDEX 01 01:28:48
  TRACK 53 AUDIO
    TITLE "5:cjc172_0152"
    INDEX 01 01:28:56
  TRACK 54 AUDIO
    TITLE "0:"
    INDEX 01 01:32:58
  TRACK 55 AUDIO
    TITLE "3:cjc172_0153"
    INDEX 01 01:33:28
  TRACK 56 AUDIO
    TITLE "0:"
    INDEX 01 01:34:45
  TRACK 57 AUDIO
    TITLE "4:cjc172_0154"
    INDEX 01 01:34:54
  TRACK 58 AUDIO
    TITLE "0:"
    INDEX 01 01:37:14
  TRACK 59 AUDIO
    TITLE "5:cjc172_0155"
    INDEX 01 01:37:22
  TRACK 60 AUDIO
    TITLE "0:"
    INDEX 01 01:44:10
  TRACK 61 AUDIO
    TITLE "3:cjc172_0156"
    INDEX 01 01:44:57
  TRACK 62 AUDIO
    TITLE "0:"
    INDEX 01 01:46:11
  TRACK 63 AUDIO
    TITLE "4:cjc172_0157"
    INDEX 01 01:46:20
  TRACK 64 AUDIO
    TITLE "0:"
    INDEX 01 01:48:06
  TRACK 65 AUDIO
    TITLE "5:cjc172_0158"
    INDEX 01 01:48:12
  TRACK 66 AUDIO
    TITLE "0:"
    INDEX 01 01:54:02
  TRACK 67 AUDIO
    TITLE "3:cjc172_0159"
    INDEX 01 01:54:49
  TRACK 68 AUDIO
    TITLE "0:"
    INDEX 01 01:55:55
  TRACK 69 AUDIO
    TITLE "4:cjc172_0160"
    INDEX 01 01:55:63
  TRACK 70 AUDIO
    TITLE "0:"
    INDEX 01 01:57:58
  TRACK 71 AUDIO
    TITLE "5:cjc172_0161"
    INDEX 01 01:57:65
  TRACK 72 AUDIO
    TITLE "0:"
    INDEX 01 02:02:33
  TRACK 73 AUDIO
    TITLE "3:cjc172_0162"
    INDEX 01 02:03:05
  TRACK 74 AUDIO
    TITLE "0:"
    INDEX 01 02:04:20
  TRACK 75 AUDIO
    TITLE "4:cjc172_0163"
    INDEX 01 02:04:30
  TRACK 76 AUDIO
    TITLE "0:"
    INDEX 01 02:08:20
  TRACK 77 AUDIO
    TITLE "5:cjc172_0164"
    INDEX 01 02:08:28
  TRACK 78 AUDIO
    TITLE "0:"
    INDEX 01 02:15:57
  TRACK 79 AUDIO
    TITLE "3:cjc172_0165"
    INDEX 01 02:16:27
  TRACK 80 AUDIO
    TITLE "0:"
    INDEX 01 02:17:66
  TRACK 81 AUDIO
    TITLE "4:cjc172_0166"
    INDEX 01 02:17:74
  TRACK 82 AUDIO
    TITLE "0:"
    INDEX 01 02:20:31
  TRACK 83 AUDIO
    TITLE "5:cjc172_0167"
    INDEX 01 02:20:39
  TRACK 84 AUDIO
    TITLE "0:"
    INDEX 01 02:26:22
